<svg id="visual" viewBox="0 0 1920 1080" width="1920" height="1080" xmlns="http://www.w3.org/2000/svg" xmlns:xlink="http://www.w3.org/1999/xlink" version="1.1"><path d="M0 229L45.7 219.3C91.3 209.7 182.7 190.3 274.2 182.2C365.7 174 457.3 177 548.8 214.5C640.3 252 731.7 324 823 358.8C914.3 393.7 1005.7 391.3 1097 346.2C1188.3 301 1279.7 213 1371.2 172.5C1462.7 132 1554.3 139 1645.8 159C1737.3 179 1828.7 212 1874.3 228.5L1920 245L1920 0L1874.3 0C1828.7 0 1737.3 0 1645.8 0C1554.3 0 1462.7 0 1371.2 0C1279.7 0 1188.3 0 1097 0C1005.7 0 914.3 0 823 0C731.7 0 640.3 0 548.8 0C457.3 0 365.7 0 274.2 0C182.7 0 91.3 0 45.7 0L0 0Z" fill="#003366" stroke-linecap="round" stroke-linejoin="miter"></path></svg>