<svg xmlns="http://www.w3.org/2000/svg" version="1.1" xmlns:xlink="http://www.w3.org/1999/xlink" xmlns:svgjs="http://svgjs.dev/svgjs" width="1920" height="1080" preserveAspectRatio="none" viewBox="0 0 1920 1080"><g mask="url(&quot;#SvgjsMask4339&quot;)" fill="none"><rect width="1920" height="1080" x="0" y="0" fill="url(&quot;#SvgjsLinearGradient4340&quot;)"></rect><g transform="translate(710.4, 0)" stroke-linecap="round"><path d="M745 417.645 L745 482.145" stroke-width="32.25" stroke="#3a7cc3"></path><path d="M745 530.52 L745 562.77" stroke-width="32.25" stroke="#3a7cc3"></path><path d="M745 611.145 L745 662.355" stroke-width="32.25" stroke="#3a7cc3"></path><path d="M788 457.625 L788 522.125" stroke-width="32.25" stroke="#3a7cc3"></path><path d="M788 570.5 L788 622.375" stroke-width="32.25" stroke="#3a7cc3"></path><path d="M831 484.805 L831 595.205" stroke-width="32.25" stroke="#3a7cc3"></path><path d="M874 491.205 L874 588.795" stroke-width="32.25" stroke="rgba(0, 51, 102, 1)"></path><path d="M917 456.295 L917 520.7950000000001" stroke-width="32.25" stroke="rgba(0, 51, 102, 1)"></path><path d="M917 569.1700000000001 L917 623.715" stroke-width="32.25" stroke="rgba(0, 51, 102, 1)"></path><path d="M960 539.355 L960 540.645" stroke-width="32.25" stroke="#3a7cc3"></path><path d="M1003 528.635 L1003 551.365" stroke-width="32.25" stroke="rgba(0, 51, 102, 1)"></path><path d="M1046 512.685 L1046 567.325" stroke-width="32.25" stroke="rgba(0, 51, 102, 1)"></path><path d="M1089 424.245 L1089 655.755" stroke-width="32.25" stroke="#3a7cc3"></path><path d="M1132 487.255 L1132 592.755" stroke-width="32.25" stroke="rgba(0, 51, 102, 1)"></path><path d="M1175 482.625 L1175 597.375" stroke-width="32.25" stroke="rgba(0, 51, 102, 1)"></path></g></g><defs><mask id="SvgjsMask4339"><rect width="1920" height="1080" fill="#ffffff"></rect></mask><linearGradient x1="10.94%" y1="-19.44%" x2="89.06%" y2="119.44%" gradientUnits="userSpaceOnUse" id="SvgjsLinearGradient4340"><stop stop-color="rgba(255, 253, 0, 1)" offset="0"></stop><stop stop-color="rgba(255, 215, 0, 1)" offset="1"></stop></linearGradient></defs></svg>