<svg xmlns="http://www.w3.org/2000/svg" version="1.1" xmlns:xlink="http://www.w3.org/1999/xlink" xmlns:svgjs="http://svgjs.dev/svgjs" width="1920" height="1080" preserveAspectRatio="none" viewBox="0 0 1920 1080"><g mask="url(&quot;#SvgjsMask1046&quot;)" fill="none"><rect width="1920" height="1080" x="0" y="0" fill="url(&quot;#SvgjsLinearGradient1047&quot;)"></rect><path d="M -46.51040198040005,131 C 17.49,268.4 145.49,746.4 273.48959801959995,818 C 401.49,889.6 465.49,464.2 593.4895980196,489 C 721.49,513.8 785.49,1014.8 913.4895980196,942 C 1041.49,869.2 1105.49,173.2 1233.4895980196,125 C 1361.49,76.8 1425.49,650.4 1553.4895980196,701 C 1681.49,751.6 1745.49,353.4 1873.4895980196,378 C 2001.49,402.6 2184.19,839.2 2193.4895980195997,824 C 2202.79,808.8 1974.7,406.4 1920,302" stroke="rgba(0, 123, 255, 1)" stroke-width="2"></path><path d="M -497.9497621756272,685 C -433.95,604.8 -305.95,289.6 -177.9497621756272,284 C -49.95,278.4 14.05,626 142.0502378243728,657 C 270.05,688 334.05,425 462.0502378243728,439 C 590.05,453 654.05,768 782.0502378243727,727 C 910.05,686 974.05,212.4 1102.0502378243727,234 C 1230.05,255.6 1294.05,847.6 1422.0502378243727,835 C 1550.05,822.4 1642.46,157.8 1742.0502378243727,171 C 1841.64,184.2 1884.41,755 1920,901" stroke="rgba(0, 123, 255, 1)" stroke-width="2"></path><path d="M -267.4675721004783,202 C -203.47,316 -75.47,790.8 52.53242789952168,772 C 180.53,753.2 244.53,123.4 372.5324278995217,108 C 500.53,92.6 564.53,663 692.5324278995217,695 C 820.53,727 884.53,248.8 1012.5324278995217,268 C 1140.53,287.2 1204.53,748.6 1332.5324278995217,791 C 1460.53,833.4 1524.53,513.2 1652.5324278995217,480 C 1780.53,446.8 1919.04,616.6 1972.5324278995217,625 C 2026.03,633.4 1930.51,542.6 1920,522" stroke="rgba(0, 123, 255, 1)" stroke-width="2"></path></g><defs><mask id="SvgjsMask1046"><rect width="1920" height="1080" fill="#ffffff"></rect></mask><linearGradient x1="10.94%" y1="-19.44%" x2="89.06%" y2="119.44%" gradientUnits="userSpaceOnUse" id="SvgjsLinearGradient1047"><stop stop-color="#0e2a47" offset="0"></stop><stop stop-color="#00459e" offset="1"></stop></linearGradient></defs></svg>