<svg xmlns="http://www.w3.org/2000/svg" version="1.1" xmlns:xlink="http://www.w3.org/1999/xlink" xmlns:svgjs="http://svgjs.dev/svgjs" viewBox="0 0 800 800"><g transform="matrix(1,0,0,1,0,0)"><path d="M682.5758713217347 663.4602178133055C683.4571221478452 662.951519049429 684.5428778521548 662.951519049429 685.4241286782653 663.4603602261732L701.0758725038727 672.4968839283703C701.9571233299832 673.0055826922467 702.500001182138 673.9459348585053 702.500001182138 674.9634747991258V693.03652220352C702.500001182138 694.0540621441405 701.9571233299832 694.9944143103992 701.0758725038727 695.5032554871434L685.4241286782653 704.5397791893404C684.5428778521548 705.0484779532168 683.4571221478452 705.0484779532168 682.5758713217347 704.5396367764727L666.9241274961273 695.5031130742755C666.0428766700168 694.9944143103992 665.499998817862 694.0540621441405 665.499998817862 693.03652220352V674.9634747991258C665.499998817862 673.9459348585053 666.0428766700168 673.0055826922467 666.9241274961273 672.4967415155024L682.5758713217347 663.4602178133055Z " stroke-width="0.5" stroke="#003366" fill="none" opacity="0.38" transform="matrix(2.1781000415387233,1.0149290840538798,-0.9245486148182817,-0.41005796732062155,-731.3447136866951,280.0066080913848)"></path><path d="M673.320747043598 643.2935939331624C674.4629989589732 642.6342332606154 675.8703242018339 642.6342332606154 677.0125761172092 643.2937785246161L697.299915242518 655.0066600350088C698.4421671578932 655.6660207075558 699.1458297793235 656.8848780762086 699.1458297793235 658.2037840127562V681.6295470335418C699.1458297793235 682.9484529700894 698.4421671578932 684.1673103387423 697.299915242518 684.8268556027429L677.0125761172092 696.5397371131357C675.8703242018339 697.1990977856826 674.4629989589732 697.1990977856826 673.320747043598 696.539552521682L653.0334079182893 684.8266710112891C651.8911560029139 684.1673103387423 651.1874933814836 682.9484529700894 651.1874933814836 681.6295470335418V658.2037840127562C651.1874933814836 656.8848780762086 651.8911560029139 655.6660207075558 653.0334079182893 655.0064754435552L673.320747043598 643.2935939331624Z " stroke-width="0.7291666666666666" stroke="#2e4864" fill="none" opacity="0.4058333333333333" transform="matrix(1.8205509001093365,0.9639779609420333,-1.144983453298617,-0.500924505703422,-352.62153182461134,338.08420301228074)"></path><path d="M664.0656380242505 623.1269700530195C665.4688910288905 622.3169474718019 667.1977858103023 622.3169474718019 668.6010388149423 623.127196823059L693.5239732399523 637.5164361416475C694.9272262445924 638.326458722865 695.7916736352981 639.823821293912 695.7916736352981 641.4440932263867V670.2225718635638C695.7916736352981 671.8428437960384 694.9272262445924 673.3402063670853 693.5239732399523 674.1504557183425L668.6010388149423 688.539695036931C667.1977858103023 689.3497176181486 665.4688910288905 689.3497176181486 664.0656380242505 688.5394682668915L639.1427035992406 674.1502289483029C637.7394505946004 673.3402063670853 636.8750032038945 671.8428437960384 636.8750032038945 670.2225718635638V641.4440932263867C636.8750032038945 639.823821293912 637.7394505946004 638.326458722865 639.1427035992406 637.516209371608L664.0656380242505 623.1269700530195Z " stroke-width="0.9583333333333333" stroke="#425862" fill="none" opacity="0.43166666666666664" transform="matrix(1.483118342869221,0.9053887444615958,-1.3044808685389173,-0.5860959073094237,-34.371347369532714,394.1542218099374)"></path><path d="M654.8105137461138 602.9603385434818C656.4747678400186 601.9996540535938 658.5252321599814 601.9996540535938 660.1894862538862 602.9606074921072L689.7480159785976 620.0262046188916C691.4122700725022 620.9868891087797 692.4375022324837 622.7627568822209 692.4375022324837 624.6843948106225V658.815589064191C692.4375022324837 660.7372269925928 691.4122700725022 662.5130947660339 689.7480159785976 663.4740482045474L660.1894862538862 680.5396453313317C658.5252321599814 681.5003298212199 656.4747678400186 681.5003298212199 654.8105137461138 680.5393763827063L625.2519840214024 663.4737792559221C623.5877299274978 662.5130947660339 622.5624977675163 660.7372269925928 622.5624977675163 658.815589064191V624.6843948106225C622.5624977675163 622.7627568822209 623.5877299274978 620.9868891087797 625.2519840214024 620.0259356702661L654.8105137461138 602.9603385434818Z " stroke-width="1.1875" stroke="#50665f" fill="none" opacity="0.4575" transform="matrix(1.1639819358705994,0.8397395524928419,-1.4120229992229163,-0.6649729929649718,233.2327331752383,448.1756743759605)"></path><path d="M645.5553894679771 582.7937222927334C647.4806446511466 581.6823758941746 649.8526785096606 581.6823758941746 651.7779336928302 582.7940334199445L685.9720587172427 602.5359883549247C687.8973139004122 603.6473347534834 689.0833308296692 605.7017077293186 689.0833308296692 607.9247116536474V647.4086215236075C689.0833308296692 649.6316254479362 687.8973139004122 651.6859984237715 685.9720587172427 652.7976559495414L651.7779336928302 672.5396108845216C649.8526785096606 673.6509572830803 647.4806446511466 673.6509572830803 645.5553894679771 672.5392997573103L611.3612644435646 652.7973448223303C609.4360092603949 651.6859984237715 608.249992331138 649.6316254479362 608.249992331138 647.4086215236075V607.9247116536474C608.249992331138 605.7017077293186 609.4360092603949 603.6473347534834 611.3612644435646 602.5356772277134L645.5553894679771 582.7937222927334Z " stroke-width="1.4166666666666665" stroke="#5d725d" fill="none" opacity="0.48333333333333334" transform="matrix(0.8626656133814317,0.7676525466348207,-1.4743055822762305,-0.7370101078525779,457.057104884732,500.11262188671316)"></path><path d="M636.3002804486296 562.6271060419849C638.4865367210639 561.3650977347556 641.180140118129 561.3650977347556 643.3663963905633 562.6274593477821L682.196116714677 585.0457720909578C684.3823729871112 586.3077803981871 685.7291746856438 588.6406585764166 685.7291746856438 591.1650284966724V636.001653983024C685.7291746856438 638.5260239032798 684.3823729871112 640.8589020815092 682.196116714677 642.1212636945356L643.3663963905633 664.5395764377115C641.180140118129 665.8015847449408 638.4865367210639 665.8015847449408 636.3002804486296 664.5392231319144L597.4705601245157 642.1209103887386C595.2843038520815 640.8589020815092 593.9375021535488 638.5260239032798 593.9375021535488 636.001653983024V591.1650284966724C593.9375021535488 588.6406585764166 595.2843038520815 586.3077803981871 597.4705601245157 585.0454187851608L636.3002804486296 562.6271060419849Z " stroke-width="1.6458333333333333" stroke="#687d5b" fill="none" opacity="0.5091666666666667" transform="matrix(0.5795082786849972,0.689789370546055,-1.4966435114598156,-0.8017182357633101,642.1318025055313,549.927480216722)"></path><path d="M627.0451561704929 542.4604821618419C629.4924135321919 541.0478119459419 632.5075864678081 541.0478119459419 634.9548438295071 542.4608776462248L678.4201594533222 567.5555481975964C680.8674168150212 568.9682184134963 682.3750032828293 571.5796017941199 682.3750032828293 574.4053377103028V624.5946788130459C682.3750032828293 627.4204147292287 680.8674168150212 630.0317981098523 678.4201594533222 631.4448638101351L634.9548438295071 656.5395343615066C632.5075864678081 657.9522045774066 629.4924135321919 657.9522045774066 627.0451561704929 656.5391388771238L583.5798405466778 631.4444683257523C581.1325831849788 630.0317981098523 579.6249967171707 627.4204147292287 579.6249967171707 624.5946788130459V574.4053377103028C579.6249967171707 571.5796017941199 581.1325831849788 568.9682184134963 583.5798405466778 567.5551527132134L627.0451561704929 542.4604821618419Z " stroke-width="1.875" stroke="#728758" fill="none" opacity="0.535" transform="matrix(0.31533026532701114,0.6068463652249672,-1.4835122606872875,-0.8586677459956965,792.3290844969961,597.5751301852542)"></path><path d="M617.7900318923562 522.2938582816988C620.4982903433199 520.7305261571283 623.8350328174872 520.7305261571283 626.543291268451 522.2942959446676L674.6442021919675 550.065324304235C677.3524606429312 551.6286564288055 679.0208318800148 554.5185450118232 679.0208318800148 557.6456469239331V613.1877036430677C679.0208318800148 616.3148055551776 677.3524606429312 619.2046941381952 674.6442021919675 620.7684639257346L626.543291268451 648.539492285302C623.8350328174872 650.1028244098725 620.4982903433199 650.1028244098725 617.7900318923562 648.5390546223332L569.6891209688398 620.7680262627658C566.9808625178761 619.2046941381952 565.3124912807923 616.3148055551776 565.3124912807923 613.1877036430677V557.6456469239331C565.3124912807923 554.5185450118232 566.9808625178761 551.6286564288055 569.6891209688398 550.0648866412662L617.7900318923562 522.2938582816988Z " stroke-width="2.1041666666666665" stroke="#7b9056" fill="none" opacity="0.5608333333333333" transform="matrix(0.07121213956737504,0.5195495905507961,-1.4388806941037962,-0.9074907561753326,910.7873693054652,642.9980878178933)"></path><path d="M608.5349228730087 502.1272267721614C611.5041824132371 500.4132327389202 615.1624944259556 500.4132327389202 618.1317539661841 502.12770661371604L670.8682601894018 532.575092781479C673.8375197296302 534.2890868147202 675.6666757359894 537.4574806001322 675.6666757359894 540.8859485081691V601.7807208436951C675.6666757359894 605.2091887517321 673.8375197296302 608.377582537144 670.8682601894018 610.0920564119397L618.1317539661841 640.5394425797028C615.1624944259556 642.2534366129439 611.5041824132371 642.2534366129439 608.5349228730087 640.5389627381481L555.7984166497911 610.0915765703851C552.8291571095625 608.377582537144 551.0000011032032 605.2091887517321 551.0000011032032 601.7807208436951V540.8859485081691C551.0000011032032 537.4574806001322 552.8291571095625 534.2890868147202 555.7984166497911 532.5746129399245L608.5349228730087 502.1272267721614Z " stroke-width="2.333333333333333" stroke="#839953" fill="none" opacity="0.5866666666666667" transform="matrix(-0.15165872012208836,0.4286496836479673,-1.3664187009376318,-0.9478830966751465,1000.1829525796115,686.1225066407299)"></path><path d="M599.279798594872 481.9605952626238C602.5100592243652 480.0959393207121 606.4899407756348 480.0959393207121 609.720201405128 481.96111728276435L667.0923029280469 515.0848612587231C670.3225635575402 516.9495172006348 672.312504333175 520.3964161884409 672.312504333175 524.1262500924049V590.3737380443224C672.312504333175 594.1035719482865 670.3225635575402 597.5504709360926 667.0923029280469 599.4156488981447L609.720201405128 632.5393928741034C606.4899407756348 634.4040488160152 602.5100592243652 634.4040488160152 599.279798594872 632.538870853963L541.907697071953 599.4151268780042C538.6774364424598 597.5504709360926 536.687495666825 594.1035719482865 536.687495666825 590.3737380443224V524.1262500924049C536.687495666825 520.3964161884409 538.6774364424598 516.9495172006348 541.907697071953 515.0843392385826L599.279798594872 481.9605952626238Z " stroke-width="2.5625" stroke="#8ba151" fill="none" opacity="0.6125" transform="matrix(-0.35209862231041966,0.33491658568291693,-1.2696266156465668,-0.979605864804304,1062.907313978113,726.8554036941512)"></path><path d="M590.0246743167353 461.7939790118753C593.5159360354933 459.778661161293 597.817387125314 459.778661161293 601.308648844072 461.79454321060166L663.3163456666922 497.5946449947562C666.8076073854502 499.60996284533854 668.9583329303605 503.33536703553875 668.9583329303605 507.3665669354298V578.9667705037389C668.9583329303605 582.9979704036299 666.8076073854502 586.7233745938302 663.3163456666922 588.7392566431388L601.308648844072 624.5393584272933C597.817387125314 626.5546762778756 593.5159360354933 626.5546762778756 590.0246743167353 624.538794228567L528.016977494115 588.7386924444124C524.5257157753572 586.7233745938302 522.3749902304467 582.9979704036299 522.3749902304467 578.9667705037389V507.3665669354298C522.3749902304467 503.33536703553875 524.5257157753572 499.60996284533854 528.016977494115 497.59408079602986L590.0246743167353 461.7939790118753Z " stroke-width="2.7916666666666665" stroke="#93a94e" fill="none" opacity="0.6383333333333333" transform="matrix(-0.5290095288811139,0.23913416954701533,-1.1519139955731796,-1.002486559489367,1101.182718793,765.08291486748)"></path><path d="M580.7695652973878 441.62735513173226C584.5218281054105 439.4613753724793 589.1448487337823 439.4613753724793 592.897111541805 441.6279615090445L659.5404036641265 480.1044211013948C663.2926664721492 482.27040086064767 665.6041767863352 486.27431025324205 665.6041767863352 490.6068761490601V567.5597953337607C665.6041767863352 571.8923612295788 663.2926664721492 575.8962706221731 659.5404036641265 578.0628567587382L592.897111541805 616.5393163510886C589.1448487337823 618.7052961103415 584.5218281054105 618.7052961103415 580.7695652973878 616.5387099737763L514.1262731750662 578.0622503814261C510.3740103670436 575.8962706221731 508.0625000528576 571.8923612295788 508.0625000528576 567.5597953337607V490.6068761490601C508.0625000528576 486.27431025324205 510.3740103670436 482.27040086064767 514.1262731750662 480.10381472408255L580.7695652973878 441.62735513173226Z " stroke-width="3.020833333333333" stroke="#9ab14b" fill="none" opacity="0.6641666666666667" transform="matrix(-0.681441084248027,0.14209480151845155,-1.0166445799441444,-1.0164197897793124,1117.1377820940816,800.6697414082906)"></path><path d="M571.5144410192511 421.4607312515893C575.5277049165385 419.14408958366585 580.4722950834615 419.14408958366585 584.4855589807489 421.46137980748745L655.7644464027717 462.61419720803343C659.7777103000592 464.93083887595697 662.2500053835206 469.21325347094546 662.2500053835206 473.8471853626906V556.1528201637826C662.2500053835206 560.7867520555278 659.7777103000592 565.0691666505163 655.7644464027717 567.3864568743379L584.4855589807489 608.5392742748838C580.4722950834615 610.8559159428074 575.5277049165385 610.8559159428074 571.5144410192511 608.5386257189858L500.23555359722826 567.3858083184398C496.22228969994086 565.0691666505163 493.74999461647934 560.7867520555278 493.74999461647934 556.1528201637826V473.8471853626906C493.74999461647934 469.21325347094546 496.22228969994086 464.93083887595697 500.23555359722826 462.61354865213536L571.5144410192511 421.4607312515893Z " stroke-width="3.25" stroke="#a1b848" fill="none" opacity="0.69" transform="matrix(-0.8086379858941636,0.04459387042672569,-0.8671580738102815,-1.021367553150846,1112.8551834055575,833.4596948442463)"></path><path d="M562.2593167411144 401.2940997420518C566.5335817276666 398.8267961654576 571.7997414331406 398.8267961654576 576.0740064196928 401.2947904765357L651.988489141417 445.1239656852775C656.2627541279691 447.5912692618716 658.8958339807061 452.1521890592543 658.8958339807061 457.08748694692645V544.74583736441C658.8958339807061 549.6811352520822 656.2627541279691 554.2420550494649 651.988489141417 556.7100493605428L576.0740064196928 600.5392245692847C571.7997414331406 603.0065281458787 566.5335817276666 603.0065281458787 562.2593167411144 600.5385338348008L486.3448340193903 556.7093586260589C482.07056903283814 554.2420550494649 479.43748918010107 549.6811352520822 479.43748918010107 544.74583736441V457.08748694692645C479.43748918010107 452.1521890592543 482.07056903283814 447.5912692618716 486.3448340193903 445.1232749507936L562.2593167411144 401.2940997420518Z " stroke-width="3.4791666666666665" stroke="#a7bf45" fill="none" opacity="0.7158333333333333" transform="matrix(-0.910076020012338,-0.05257568193614015,-0.7067757312142395,-1.0173590822563217,1090.3999428859174,863.2773992299285)"></path><path d="M553.0041924629778 381.1274682325143C557.5394585387947 378.50950274724954 563.12718778282 378.50950274724954 567.6624538586368 381.12820114558406L648.2125318800622 427.63373416252153C652.7477979558792 430.25169964778627 655.5416625778918 435.0911246475631 655.5416625778918 440.3277885311623V533.3388545650373C655.5416625778918 538.5755184486366 652.7477979558792 543.4149434484134 648.2125318800622 546.033641846748L567.6624538586368 592.5391748636855C563.12718778282 595.1571403489502 557.5394585387947 595.1571403489502 553.0041924629778 592.5384419506156L472.45411444155246 546.0329089336781C467.9188483657355 543.4149434484134 465.1249837437229 538.5755184486366 465.1249837437229 533.3388545650373V440.3277885311623C465.1249837437229 435.0911246475631 467.9188483657355 430.25169964778627 472.45411444155246 427.6330012494518L553.0041924629778 381.1274682325143Z " stroke-width="3.708333333333333" stroke="#adc642" fill="none" opacity="0.7416666666666667" transform="matrix(-0.985488908707886,-0.1486287954039695,-0.5387944702443166,-1.004490261427421,1051.83398562981,889.930978044429)"></path><path d="M543.7490834436302 360.9608519817658C548.5453506087118 358.1922245878305 554.4546493912882 358.1922245878305 559.2509165563698 360.9616270734214L644.4365898774964 410.1435178985547C649.2328570425781 412.91214529249 652.1875064338662 418.030075494661 652.1875064338662 423.5681053741872V521.9318870244538C652.1875064338662 527.4699169039801 649.2328570425781 532.587847106151 644.4365898774964 535.357249591742L559.2509165563698 584.5391404168753C554.4546493912882 587.3077678108106 548.5453506087118 587.3077678108106 543.7490834436302 584.5383653252196L458.5634101225035 535.3564745000864C453.7671429574219 532.587847106151 450.8124935661337 527.4699169039801 450.8124935661337 521.9318870244538V423.5681053741872C450.8124935661337 418.030075494661 453.7671429574219 412.91214529249 458.5634101225035 410.1427428068991L543.7490834436302 360.9608519817658Z " stroke-width="3.9375" stroke="#b3cc3e" fill="none" opacity="0.7675000000000001" transform="matrix(-1.0348873951314868,-0.2427936574714659,-0.36647284709397465,-0.9829226169076307,999.2209389603682,913.2157447698214)"></path><path d="M534.4939591654935 340.7942281016227C539.5512274198398 337.87493879901683 545.7820957409674 337.87493879901683 550.8393639953138 340.79504537186426L640.6606326161417 392.6532940051933C645.717900870488 395.57258330779916 648.8333350310518 400.9690187123643 648.8333350310518 406.8084145878176V510.52491185447565C648.8333350310518 516.3643077299289 645.717900870488 521.7607431344941 640.6606326161417 524.6808497073415L550.8393639953138 576.5390983406705C545.7820957409674 579.4583876432764 539.5512274198398 579.4583876432764 534.4939591654935 576.538281070429L444.67269054466556 524.6800324371C439.6154222903192 521.7607431344941 436.4999881297554 516.3643077299289 436.4999881297554 510.52491185447565V406.8084145878176C436.4999881297554 400.9690187123643 439.6154222903192 395.57258330779916 444.67269054466556 392.6524767349518L534.4939591654935 340.7942281016227Z " stroke-width="4.166666666666666" stroke="#b9d23b" fill="none" opacity="0.7933333333333333" transform="matrix(-1.0585715492608887,-0.33431696763248353,-0.19301131305717942,-0.9528818874193516,934.623581929212,932.9187669663758)"></path><path d="M525.2388348873568 320.6276042214797C530.557104230968 317.55765301020324 537.1095420906465 317.55765301020324 542.4278114342576 320.6284636703071L636.8846753547869 375.16307011183187C642.2029446983979 378.2330213231084 645.4791636282373 383.9079619300677 645.4791636282373 390.04872380144803V499.1179366844976C645.4791636282373 505.25869855587797 642.2029446983979 510.9336391628372 636.8846753547869 514.0044498229411L542.4278114342576 568.5390562644659C537.1095420906465 571.6090074757424 530.557104230968 571.6090074757424 525.2388348873568 568.5381968156385L430.78197096682754 514.0035903741137C425.4637016232165 510.9336391628372 422.18748269337715 505.25869855587797 422.18748269337715 499.1179366844976V390.04872380144803C422.18748269337715 383.9079619300677 425.4637016232165 378.2330213231084 430.78197096682754 375.1622106630046L525.2388348873568 320.6276042214797Z " stroke-width="4.395833333333333" stroke="#bfd837" fill="none" opacity="0.8191666666666666" transform="matrix(-1.0571370046182555,-0.42246906749312707,-0.021528583733936346,-0.9146561842613905,860.0963653520679,948.8241931572672)"></path><path d="M515.9837258680093 300.4609650825477C521.5629963008851 297.2403519626006 528.4370036991149 297.2403519626006 534.0162741319907 300.4618667099609L633.1087333522212 357.67283095968145C638.6880037850971 360.8934440796285 642.1250074842119 366.846889888982 642.1250074842119 373.28901775628935V487.7109462557304C642.1250074842119 494.15307412303775 638.6880037850971 500.1065199323913 633.1087333522212 503.3280346797515L534.0162741319907 560.538998929472C528.4370036991149 563.759612049419 521.5629963008851 563.759612049419 515.9837258680093 560.5380973020589L416.89126664777876 503.32713305233835C411.31199621490293 500.1065199323913 407.87499251578805 494.15307412303775 407.87499251578805 487.7109462557304V373.28901775628935C407.87499251578805 366.846889888982 411.31199621490293 360.8934440796285 416.89126664777876 357.67192933226823L515.9837258680093 300.4609650825477Z " stroke-width="4.625" stroke="#c5de33" fill="none" opacity="0.845" transform="matrix(-1.0314756720368132,-0.5065489049479173,0.14496445192326357,-0.8685937526639531,777.6741967688465,960.7191873723984)"></path><path d="M506.72861684866166 280.29436409058826C512.5688883708023 276.9230890619706 519.7644653075831 276.9230890619706 525.6047368297236 280.2953078965873L629.3327913496555 340.18262995450357C635.173062871796 343.55390498312124 638.7708513401865 349.7858559948689 638.7708513401865 356.52934985810333V476.3039939739359C638.7708513401865 483.0474878371703 635.173062871796 489.27943884891795 629.3327913496555 492.65165768353467L525.6047368297236 552.5389797414509C519.7644653075831 555.9102547700686 512.5688883708023 555.9102547700686 506.72861684866166 552.5380359354518L403.00056232872987 492.6507138775356C397.1602908065893 489.27943884891795 393.56250233819884 483.0474878371703 393.56250233819884 476.3039939739359V356.52934985810333C393.56250233819884 349.7858559948689 397.1602908065893 343.55390498312124 403.00056232872987 340.1816861485046L506.72861684866166 280.29436409058826Z " stroke-width="4.854166666666666" stroke="#cae42f" fill="none" opacity="0.8708333333333333" transform="matrix(-0.982771382030906,-0.5858888017200115,0.303592134199319,-0.8151003485857685,689.358928101939,968.4003561406433)"></path><path d="M497.47347731173596 260.1277478398398C503.57474992314127 256.6058109025515 511.0918963984733 256.6058109025515 517.1931690098786 260.12873382442467L625.5568188295117 322.69241369053674C631.6580914409169 326.214350627825 635.416664678583 332.72480684196677 635.416664678583 339.76966670112824V464.8970264333523C635.416664678583 471.94188629251386 631.6580914409169 478.4523425066556 625.5568188295117 481.97526542852876L517.1931690098786 544.5389452946408C511.0918963984733 548.0608822319291 503.57474992314127 548.0608822319291 497.47347731173596 544.5379593100558L389.10982749210285 481.9742794439439C383.0085548806976 478.4523425066556 379.24998164303156 471.94188629251386 379.24998164303156 464.8970264333523V339.76966670112824C379.24998164303156 332.72480684196677 383.0085548806976 326.214350627825 389.10982749210285 322.69142770595187L497.47347731173596 260.1277478398398Z " stroke-width="5.083333333333333" stroke="#cfea2a" fill="none" opacity="0.8966666666666666" transform="matrix(-0.912490858082809,-0.6598589947689235,0.45164179878713756,-0.7546362475067898,597.1041763630571,971.6805011333834)"></path><path d="M488.2183682923884 239.96111633030227C494.58064199305846 236.28851748434343 502.41935800694154 236.28851748434343 508.7816317076116 239.96214449347303L621.780876826946 305.20218216778085C628.143150527616 308.8747810137397 632.0625085345575 315.66374243027565 632.0625085345575 323.00996828536415V453.4900436339797C632.0625085345575 460.83626948906823 628.143150527616 467.6252309056042 621.780876826946 471.29885791473373L508.7816317076116 536.5388955890415C502.41935800694154 540.2114944350004 494.58064199305846 540.2114944350004 488.2183682923884 536.5378674258708L375.219123173054 471.29782975156303C368.856849472384 467.6252309056042 364.9374914654424 460.83626948906823 364.9374914654424 453.4900436339797V323.00996828536415C364.9374914654424 315.66374243027565 368.856849472384 308.8747810137397 375.219123173054 305.2011540046101L488.2183682923884 239.96111633030227Z " stroke-width="5.3125" stroke="#d4ef24" fill="none" opacity="0.9225" transform="matrix(-0.8223704036233097,-0.7278719234537189,0.5865911081481692,-0.687712904035662,502.799624251959,970.3955292021528)"></path><path d="M478.96325927304076 219.7944848207647C485.5865340629756 215.97122406613525 493.7468196154098 215.97122406613525 500.37009440534456 219.79555516252134L618.0049348243803 287.71195064502484C624.6282096143151 291.5352113996543 628.7083523905322 298.6026780185844 628.7083523905322 306.25026986959995V442.08306083460707C628.7083523905322 449.73065268562266 624.6282096143151 456.7981193045527 618.0049348243803 460.62245040093876L500.37009440534456 528.5388458834423C493.7468196154098 532.3621066380717 485.5865340629756 532.3621066380717 478.96325927304076 528.5377755416857L361.3284188540051 460.6213800591821C354.70514406407034 456.7981193045527 350.62500128785325 449.73065268562266 350.62500128785325 442.08306083460707V306.25026986959995C350.62500128785325 298.6026780185844 354.70514406407034 291.5352113996543 361.3284188540051 287.71088030326825L478.96325927304076 219.7944848207647Z " stroke-width="5.541666666666666" stroke="#d9f51d" fill="none" opacity="0.9483333333333334" transform="matrix(-0.7143986854169501,-0.7893862358976005,0.7061342664620627,-0.6148892833001024,408.2550502280617,964.411338941212)"></path><path d="M469.70811973611507 199.6278380524381C476.5923956153146 195.65391538913806 485.07425070629995 195.65391538913806 491.95852658549944 199.62895057278058L614.2289623042363 270.2217038634799C621.1132381834359 274.1956265267799 625.3541657289286 281.5415983481042 625.3541657289286 289.4905561950468V430.67606277644535C625.3541657289286 438.6250206233879 621.1132381834359 445.97099244471224 614.2289623042363 449.9460276283547L491.95852658549944 520.538780919054C485.07425070629995 524.5127035823541 476.5923956153146 524.5127035823541 469.70811973611507 520.5376683987115L347.4376840173781 449.94491510801225C340.5534081381786 445.97099244471224 336.312480592686 438.6250206233879 336.312480592686 430.67606277644535V289.4905561950468C336.312480592686 281.5415983481042 340.5534081381786 274.1956265267799 347.4376840173781 270.2205913431374L469.70811973611507 199.6278380524381Z " stroke-width="5.770833333333333" stroke="#defa15" fill="none" opacity="0.9741666666666666" transform="matrix(-0.5907960086547367,-0.8439104897214331,0.8082065321667987,-0.5367678871074342,315.184879905467,953.6305392470465)"></path><path d="M460.4530107167675 179.46125231926777C467.59828768523175 175.33666774729716 476.40171231476825 175.33666774729716 483.5469892832325 179.46240701819613L610.4530203016707 252.73151811709113C617.5982972701349 256.8561026890618 622.0000095849032 264.48057971278024 622.0000095849032 272.7309035556499V419.2691257534399C622.0000095849032 427.5194495963096 617.5982972701349 435.14392662002797 610.4530203016707 439.26966589092694L483.5469892832325 512.538776989822C476.40171231476825 516.6633615617925 467.59828768523175 516.6633615617925 460.4530107167675 512.5376222908938L333.54697969832927 439.26851119199864C326.401702729865 435.14392662002797 321.9999904150968 427.5194495963096 321.9999904150968 419.2691257534399V272.7309035556499C321.9999904150968 264.48057971278024 326.401702729865 256.8561026890618 333.54697969832927 252.73036341816288L460.4530107167675 179.46125231926777Z " stroke-width="6" stroke="#e3ff00" fill="none" opacity="1" transform="matrix(-0.4539904997395469,-0.8910065241883678,0.8910065241883678,-0.4539904997395469,225.19359022047166,937.9988095711658)"></path></g></svg>