<svg id="visual" viewBox="0 0 1920 1080" width="1920" height="1080" xmlns="http://www.w3.org/2000/svg" xmlns:xlink="http://www.w3.org/1999/xlink" version="1.1"><path d="M0 167L40 159.7C80 152.3 160 137.7 240 154.2C320 170.7 400 218.3 480 231.2C560 244 640 222 720 200.3C800 178.7 880 157.3 960 157.3C1040 157.3 1120 178.7 1200 200.7C1280 222.7 1360 245.3 1440 256.8C1520 268.3 1600 268.7 1680 261.7C1760 254.7 1840 240.3 1880 233.2L1920 226L1920 0L1880 0C1840 0 1760 0 1680 0C1600 0 1520 0 1440 0C1360 0 1280 0 1200 0C1120 0 1040 0 960 0C880 0 800 0 720 0C640 0 560 0 480 0C400 0 320 0 240 0C160 0 80 0 40 0L0 0Z" fill="#003366" stroke-linecap="round" stroke-linejoin="miter"></path></svg>