<svg id="visual" viewBox="0 0 1920 1080" width="1920" height="1080" xmlns="http://www.w3.org/2000/svg" xmlns:xlink="http://www.w3.org/1999/xlink" version="1.1"><path d="M0 209L40 199.8C80 190.7 160 172.3 240 193C320 213.7 400 273.3 480 289.3C560 305.3 640 277.7 720 250.7C800 223.7 880 197.3 960 197.5C1040 197.7 1120 224.3 1200 251.8C1280 279.3 1360 307.7 1440 322C1520 336.3 1600 336.7 1680 327.8C1760 319 1840 301 1880 292L1920 283L1920 0L1880 0C1840 0 1760 0 1680 0C1600 0 1520 0 1440 0C1360 0 1280 0 1200 0C1120 0 1040 0 960 0C880 0 800 0 720 0C640 0 560 0 480 0C400 0 320 0 240 0C160 0 80 0 40 0L0 0Z" fill="#003366" stroke-linecap="round" stroke-linejoin="miter"></path></svg>