<svg id="visual" viewBox="0 0 1920 1080" width="1920" height="1080" xmlns="http://www.w3.org/2000/svg" xmlns:xlink="http://www.w3.org/1999/xlink" version="1.1"><path d="M0 466L40 435.3C80 404.7 160 343.3 240 314C320 284.7 400 287.3 480 320.2C560 353 640 416 720 441.8C800 467.7 880 456.3 960 445.8C1040 435.3 1120 425.7 1200 389.2C1280 352.7 1360 289.3 1440 235.7C1520 182 1600 138 1680 148.7C1760 159.3 1840 224.7 1880 257.3L1920 290L1920 0L1880 0C1840 0 1760 0 1680 0C1600 0 1520 0 1440 0C1360 0 1280 0 1200 0C1120 0 1040 0 960 0C880 0 800 0 720 0C640 0 560 0 480 0C400 0 320 0 240 0C160 0 80 0 40 0L0 0Z" fill="#003366" stroke-linecap="round" stroke-linejoin="miter"></path></svg>