<svg id="visual" viewBox="0 0 1920 1080" width="1920" height="1080" xmlns="http://www.w3.org/2000/svg" xmlns:xlink="http://www.w3.org/1999/xlink" version="1.1"><path d="M0 149L45.7 207.2C91.3 265.3 182.7 381.7 274.2 372.5C365.7 363.3 457.3 228.7 548.8 214.5C640.3 200.3 731.7 306.7 823 366.3C914.3 426 1005.7 439 1097 403.8C1188.3 368.7 1279.7 285.3 1371.2 247.3C1462.7 209.3 1554.3 216.7 1645.8 229.5C1737.3 242.3 1828.7 260.7 1874.3 269.8L1920 279L1920 0L1874.3 0C1828.7 0 1737.3 0 1645.8 0C1554.3 0 1462.7 0 1371.2 0C1279.7 0 1188.3 0 1097 0C1005.7 0 914.3 0 823 0C731.7 0 640.3 0 548.8 0C457.3 0 365.7 0 274.2 0C182.7 0 91.3 0 45.7 0L0 0Z" fill="#003366" stroke-linecap="round" stroke-linejoin="miter"></path></svg>