<svg id="visual" viewBox="0 0 1920 1080" width="1920" height="1080" xmlns="http://www.w3.org/2000/svg" xmlns:xlink="http://www.w3.org/1999/xlink" version="1.1"><path d="M0 437L45.7 442.7C91.3 448.3 182.7 459.7 274.2 420.7C365.7 381.7 457.3 292.3 548.8 246.5C640.3 200.7 731.7 198.3 823 226.3C914.3 254.3 1005.7 312.7 1097 351.8C1188.3 391 1279.7 411 1371.2 378.3C1462.7 345.7 1554.3 260.3 1645.8 243.3C1737.3 226.3 1828.7 277.7 1874.3 303.3L1920 329L1920 0L1874.3 0C1828.7 0 1737.3 0 1645.8 0C1554.3 0 1462.7 0 1371.2 0C1279.7 0 1188.3 0 1097 0C1005.7 0 914.3 0 823 0C731.7 0 640.3 0 548.8 0C457.3 0 365.7 0 274.2 0C182.7 0 91.3 0 45.7 0L0 0Z" fill="#003366" stroke-linecap="round" stroke-linejoin="miter"></path></svg>