<svg id="visual" viewBox="0 0 1920 1080" width="1920" height="1080" xmlns="http://www.w3.org/2000/svg" xmlns:xlink="http://www.w3.org/1999/xlink" version="1.1"><path d="M0 210L53.3 238.8C106.7 267.7 213.3 325.3 320 372.3C426.7 419.3 533.3 455.7 640 436.2C746.7 416.7 853.3 341.3 960 280.3C1066.7 219.3 1173.3 172.7 1280 208C1386.7 243.3 1493.3 360.7 1600 392.7C1706.7 424.7 1813.3 371.3 1866.7 344.7L1920 318L1920 0L1866.7 0C1813.3 0 1706.7 0 1600 0C1493.3 0 1386.7 0 1280 0C1173.3 0 1066.7 0 960 0C853.3 0 746.7 0 640 0C533.3 0 426.7 0 320 0C213.3 0 106.7 0 53.3 0L0 0Z" fill="#003366" stroke-linecap="round" stroke-linejoin="miter"></path></svg>